<mxfile host="app.diagrams.net" modified="2024-05-27T05:53:09.598Z" agent="Mozilla/5.0 (X11; Ubuntu; Linux x86_64; rv:126.0) Gecko/20100101 Firefox/126.0" etag="aHca8rHCyJreYabtHIiK" version="24.4.7" type="github">
  <diagram name="Page-1" id="kVjwBrBJ-38mY9O0vH5k">
    <mxGraphModel dx="956" dy="621" grid="1" gridSize="10" guides="1" tooltips="1" connect="1" arrows="1" fold="1" page="1" pageScale="1" pageWidth="827" pageHeight="1169" math="0" shadow="0">
      <root>
        <mxCell id="0" />
        <mxCell id="1" parent="0" />
      </root>
    </mxGraphModel>
  </diagram>
</mxfile>
